<?xml version="1.0" encoding="UTF-8"?>
<svg id="Layer_1" data-name="Layer 1" xmlns="http://www.w3.org/2000/svg" viewBox="0 0 16 16">
  <defs>
    <style>
      .cls-1 {
        fill: #fbb03b;
      }
    </style>
  </defs>
  <path class="cls-1" d="M15,16c-4.3,0-14,0-14,0v-2c0-6,10-6,10-10,0-2-1-2-3-2s-3,0-3,2h-2c0-2,1-4,5-4s5,2,5,4c0,6-10,5.33-10,10h10v-5.62c.62-.39,1.48-1.37,1.48-2.37.52-.02.52,0,.52.99"/>
  <path class="cls-1" d="M1,9.5v-2.5c0-.64.32-.99,1-1h4.44c-1.97.9-4.61,1.91-5.44,3.5Z"/>
</svg>